<svg id="Layer_1" data-name="Layer 1" xmlns="http://www.w3.org/2000/svg" viewBox="0 0 203.63 198.76"><defs><style>.cls-1{fill:#caa75c;}</style></defs><path class="cls-1" d="M273.38,438.48a87.8,87.8,0,0,1-10.52-52.63,109.4,109.4,0,0,0-7,20.48c-1.43,6-3.09,12.61-3.13,21.47a74.82,74.82,0,0,0,.72,10.68Z" transform="translate(-174.06 -239.72)"/><path class="cls-1" d="M242.28,249.5l-.49.09a60.09,60.09,0,0,0-22,9.9c-24.45,17.16-36.87,44.69-45.07,72.51-.22.76-.45,1.53-.67,2.3,0,0,14.74-21,35.36-32.5a32.58,32.58,0,0,0,6.24-4.44c4.46-4.13,19-30.15,37.73-43.46.47-.34,5.72-2.57,5.7-3C258.91,247,245.67,248.87,242.28,249.5Z" transform="translate(-174.06 -239.72)"/><path class="cls-1" d="M305.26,331.78l-12.39,19a65.2,65.2,0,0,1-5,7A33.5,33.5,0,0,1,267.57,369q1.33-4.78,2.66-9.56a21.27,21.27,0,0,1,2.94-7.1,19.2,19.2,0,0,1,3.42-3.38,144,144,0,0,1,21-14.47c1.87-1.06,4.08-2.1,6.07-1.3" transform="translate(-174.06 -239.72)"/><path class="cls-1" d="M372.83,278.3c.87-2.09,2.06-4.62,3-7.27,1.34-3.61,2.31-7.42,1.56-10.58-1.23-5.21-7.34-8-11.77-9.9a126.37,126.37,0,0,0-60.32-10.46c.07.46.14.9.22,1.34.75,4.24,1.74,8.56,4.17,12.11,3.59,5.23,10.09,8.5,12,14.56,2.27,7.32-3.3,15.65-.25,22.68.65,1.5,1.55,3.53.22,4.47a3,3,0,0,1-2,.33c-2.73-.17-6-.68-7.1-3.17a8.7,8.7,0,0,1-.52-2.83,38.48,38.48,0,0,0-13.12-25.74c-4.41-3.79-9.63-6.51-14.32-9.95a76.23,76.23,0,0,1-8.45-7.31,96.61,96.61,0,0,0-19.52,10c-17.72,11.83-30,30.19-39.38,49a140.12,140.12,0,0,0-14.05,52.25,42.57,42.57,0,0,0,5.88,3.68c5,2.58,10.58,4.2,15.09,7.6s7.82,9.39,5.79,14.66l-13.43-7.33c-2.89-1.58-5.89-3.2-9.18-3.5a20,20,0,0,0-4.63.22c-.61,9.83-.29,28.7,10.27,48.06a84.63,84.63,0,0,0,12.39,17.15h10a97.94,97.94,0,0,1-.27-11.87c.83-21.91,8.88-39.41,15.82-50.86a13.83,13.83,0,0,1-2.27-6.05c-.52-3.74-.06-7.59-.82-11.3a48.87,48.87,0,0,0-2.37-7c-1.95-5.19-3.22-10.91-1.75-16.25a42.87,42.87,0,0,1,3-7,73.75,73.75,0,0,0,6.09-18.88,13.94,13.94,0,0,1,5.6,13.17c-.38,2.49-1.45,4.84-1.83,7.33A13.77,13.77,0,0,0,258,338c1.15,2.2,2.93,4.14,3.4,6.58a15.27,15.27,0,0,1-.2,4.95,51,51,0,0,0-.2,11.72,111,111,0,0,1,28.17-24.63C300.05,330,312,325.3,324,321.23c8.41-2.83,17.07-5.43,24.43-10.4C359.88,303.12,367.65,290.83,372.83,278.3Z" transform="translate(-174.06 -239.72)"/></svg>