<svg id="Layer_1" data-name="Layer 1" xmlns="http://www.w3.org/2000/svg" xmlns:xlink="http://www.w3.org/1999/xlink" viewBox="0 0 216.98 248.5"><defs><style>.cls-1{fill:url(#linear-gradient);}.cls-2{font-size:212px;fill:#378e93;stroke:#fff;stroke-miterlimit:10;stroke-width:3px;font-family:Candara-Bold, Candara;font-weight:700;letter-spacing:0.02em;}</style><linearGradient id="linear-gradient" x1="388.8" y1="456.9" x2="269.84" y2="250.85" gradientTransform="matrix(1, 0, 0, 1, -0.75, 0.48)" gradientUnits="userSpaceOnUse"><stop offset="0" stop-color="#b8cccd"/><stop offset="0.12" stop-color="#b2c9c9"/><stop offset="0.29" stop-color="#a0bfc0"/><stop offset="0.47" stop-color="#83b0af"/><stop offset="0.54" stop-color="#78aaa9"/><stop offset="0.6" stop-color="#8daba8"/><stop offset="0.7" stop-color="#abada7"/><stop offset="0.81" stop-color="#c0aea6"/><stop offset="0.91" stop-color="#cdafa5"/><stop offset="1" stop-color="#d1afa5"/></linearGradient></defs><path class="cls-1" d="M418.09,426.53c-.29-.17-.6-.3-.88-.48a2.65,2.65,0,0,0-2.44-.24,13.46,13.46,0,0,0-6,4.1,9.4,9.4,0,0,1-3.51,2.84c-.78.34-1.58.62-2.37.92a6.14,6.14,0,0,1-4.54-.05,3,3,0,0,1-1.84-1.41,4.45,4.45,0,0,1,.25-4.2,11.63,11.63,0,0,1,6-4.62c1.51-.53,3.08-.88,4.64-1.26.85-.21,1.72-.35,2.59-.48,1.8-.27,3.61-.45,5.39-.78a14.17,14.17,0,0,0,2.76-.91,18.11,18.11,0,0,0,4.86-2.65,5.9,5.9,0,0,0,2.11-6.26,25.36,25.36,0,0,0-1.2-3.33,2,2,0,0,0-1.49-1.24,7,7,0,0,0-4.28.34,1.73,1.73,0,0,1-2.06-.44,6.1,6.1,0,0,1-1.77-4.89c.07-.64.06-1.28.1-1.92s.1-1.09.17-1.62a12.1,12.1,0,0,0,.29-3.89,3.49,3.49,0,0,1,.07-.9,12.55,12.55,0,0,0,.1-3.52,10.66,10.66,0,0,0-1.58-3.84c-.28-.4-.73-.67-1-1.08a2.58,2.58,0,0,0-3-1.14c-2.47.49-3.87,2.24-4.83,4.43a1.29,1.29,0,0,0-.06.36,8.9,8.9,0,0,0,1.46,6c.37.49.7,1,1,1.51a3.59,3.59,0,0,1,.46.89,11,11,0,0,1,.54,4.22,4.7,4.7,0,0,1-2.92,4.28,32.81,32.81,0,0,1-5.95,2.25c-1.84.37-3.37,1.49-5.05,2.27a10.58,10.58,0,0,0-3.75,2.83q-2.42,3-4.72,6a10.59,10.59,0,0,0-2.23,5.69,21.31,21.31,0,0,1-.26,2.52,18.88,18.88,0,0,1-3.44,8.43,38,38,0,0,1-4.86,5.43,5.32,5.32,0,0,1-2.77,1.43,16.24,16.24,0,0,1-5.34.14,12,12,0,0,1-9.09-6.43,11,11,0,0,0-2.33-3.13c-.5-.45-1-.93-1.42-1.42a11.84,11.84,0,0,0-3.8-2.63c-1.87-.88-3.75-1.74-5.61-2.64a3,3,0,0,1-1.58-1.79,7.85,7.85,0,0,1-.4-3.2,19.89,19.89,0,0,1,1-4.52,35.56,35.56,0,0,1,2.26-5.36,6.19,6.19,0,0,0,.71-2.52c.06-1.25.08-2.49.18-3.74a10,10,0,0,0-1.22-4.89,2.85,2.85,0,0,0-2.26-1.65c-.21,0-.41-.12-.62-.14-1.82-.21-3.47.07-4.64,1.67L335,404a42.08,42.08,0,0,0-3.42,4.83,16.08,16.08,0,0,1-2.12,2.83,3.33,3.33,0,0,1-2.2,1.2,30.49,30.49,0,0,1-3.17.21c-1.3,0-1.71-.32-2.2-1.51-.25-.58-.52-1.16-.82-1.72-.41-.78-.88-1.53-1.27-2.31a29.05,29.05,0,0,0-2-4,45,45,0,0,1-2.47-4,4.68,4.68,0,0,0-2.87-2.36c-1.07-.32-2.15-.63-3.22-.93a1.14,1.14,0,0,0-.37,0,3.58,3.58,0,0,0-3.61,2,7.7,7.7,0,0,0-.73,1.76,4,4,0,0,0,1.23,4,5.67,5.67,0,0,0,2.47,1.33,29.65,29.65,0,0,1,3,.79c1.58.57,2.91,1.49,3.17,3.3a11.12,11.12,0,0,1,0,2.64,8.71,8.71,0,0,0,.24,3.87A9.2,9.2,0,0,0,319.3,421a10.51,10.51,0,0,1,5.23,5.24,5,5,0,0,0,.7,1.17c.6.72,1.25,1.41,1.89,2.1a4.85,4.85,0,0,1,1.19,2.23c.13.55.11,1.14.25,1.7a3.93,3.93,0,0,1-.91,3.39,2.39,2.39,0,0,1-2.9.93,12.51,12.51,0,0,1-2.31-1.23,8.36,8.36,0,0,1-2-2.46c-1.25-1.72-2.61-3.36-3.85-5.08a9.68,9.68,0,0,0-4.68-3.34,52.34,52.34,0,0,1-7-3.34,2.41,2.41,0,0,1-.58-.57c-.2-.22-.36-.49-.57-.71a4.93,4.93,0,0,1-1.25-4.3c.21-1.65.64-3.26.81-4.92a10.8,10.8,0,0,0-1-5.75,3.42,3.42,0,0,0-2.44-1.89,5.88,5.88,0,0,0-3.06,0c-2,.57-3.89,1.28-5,3.17A13,13,0,0,0,291,409a4.09,4.09,0,0,1-2.13,2.27,4,4,0,0,0-1.77,1.39,4,4,0,0,1-2.59,1.57,3.74,3.74,0,0,1-3.67-.79,6.1,6.1,0,0,1-1.51-2.56,20.42,20.42,0,0,1-.48-2,7.12,7.12,0,0,1,1.89-6.48c1.74-1.74,3.62-3.35,5.5-4.94a16,16,0,0,0,4.25-6.17,4.12,4.12,0,0,0,.3-1.59,15.12,15.12,0,0,0-.21-2.52,8.7,8.7,0,0,0-2-4.64,11.64,11.64,0,0,0-2.2-1.89,3.19,3.19,0,0,0-2.8-.35,4.56,4.56,0,0,0-3,2.31c-.1.21-.28.39-.39.61a14.59,14.59,0,0,0-1.71,4.39c-.29,1.73-.61,3.45-1,5.16a6.29,6.29,0,0,1-3.14,4.38l-1.68.92a9.09,9.09,0,0,0-3.29,2.68,9,9,0,0,0-1.81,5.79,20.26,20.26,0,0,0,.22,3.73,7.16,7.16,0,0,0,2.75,4.47c1.05.73,2.13,1.4,3.2,2.1a2.81,2.81,0,0,1,1.33,1.33,4.86,4.86,0,0,1,.13,3.28,1.42,1.42,0,0,1-1,1,13.24,13.24,0,0,1-2.14.41,9.22,9.22,0,0,1-3.11-.55,4.2,4.2,0,0,1-2.5-1.55,22.52,22.52,0,0,1-1.71-2.78c-.77-1.45-1.46-2.94-2.2-4.41a5.51,5.51,0,0,0-.63-.89,9.68,9.68,0,0,1-2.06-4.2c-.22-1.13-.54-2.23-.78-3.35a42.5,42.5,0,0,1-.83-4.28,13.23,13.23,0,0,1,.61-5.3,10.83,10.83,0,0,1,3.42-5.29c1.12-.92,2.27-1.82,3.38-2.77,1.66-1.43,3.27-2.91,4.94-4.32a8,8,0,0,0,2.28-2.81,37,37,0,0,0,1.93-4.82,27.92,27.92,0,0,0,.83-4.82,9.79,9.79,0,0,0-2.1-7.17,3.81,3.81,0,0,0-2.51-1.7,8.13,8.13,0,0,0-3.33.06c-2.07.41-3,1.92-3.61,3.69a14,14,0,0,0-.28,3c0,.42,0,.85-.1,1.27a5.49,5.49,0,0,1-2.82,3.62,7.93,7.93,0,0,0-1.62,1.16,6.31,6.31,0,0,1-3.05,1.68,3.85,3.85,0,0,1-3.79-.95,5.38,5.38,0,0,1-1.58-2.82c-.17-.61-.2-1.26-.34-1.88a5.28,5.28,0,0,1,.82-4.34c.32-.47.55-1,.85-1.5a9.55,9.55,0,0,1,1-1.57,9.09,9.09,0,0,0,2.25-4,22.43,22.43,0,0,0,.63-6.68,11.7,11.7,0,0,0-.17-2.45c-.31-1.32-.81-2.6-1.18-3.91a6.65,6.65,0,0,0-1.72-2.75,3.78,3.78,0,0,0-3.58-1.11,2.19,2.19,0,0,0-1.64,1.05,12.07,12.07,0,0,0-1,1.75c-.6,1.68-1.14,3.39-1.64,5.1a10.13,10.13,0,0,0-.18,5c.23,1,.5,2,.75,3a13.84,13.84,0,0,1,.24,4.71c-.07.82-.31,1.62-.32,2.43a9.49,9.49,0,0,1-1.62,4.77A4.12,4.12,0,0,1,240,372a4.35,4.35,0,0,1-3.74-2.69,15.7,15.7,0,0,1-1.15-8.28c.15-1.84.43-3.68.72-5.5a18.91,18.91,0,0,1,1.6-5.39,64,64,0,0,0,3.18-7.54,13.13,13.13,0,0,1,2.84-4.74,11.07,11.07,0,0,0,1.39-1.68,8.76,8.76,0,0,0,1.19-2.44,33.3,33.3,0,0,0,.51-3.87,2.5,2.5,0,0,0-.07-.54,11.86,11.86,0,0,0-2.51-5.19,4.84,4.84,0,0,1-.93-4.28,16.19,16.19,0,0,1,4.32-7.17c.95-1,2-1.87,3-2.8,1.85-1.7,4.15-2.06,6.51-2.09a10.26,10.26,0,0,1,2.68.47c2,.5,3.91,1.07,5.87,1.62.81.22,1.62.53,2.45.67a19.58,19.58,0,0,0,6.7.23,30.61,30.61,0,0,0,6.67-1.74,5.12,5.12,0,0,0,1.75-1.13c1.05-1.09,2-2.28,3-3.45a2.85,2.85,0,0,0,.46-1c.19-.61.35-1.23.49-1.85a4.25,4.25,0,0,0-5.05-4.88c-.91.23-1.82.46-2.71.73a21.25,21.25,0,0,0-6.74,2.9,25.58,25.58,0,0,1-4.89,2.63,2.88,2.88,0,0,1-3.89-1.12,1.54,1.54,0,0,1,.15-2.36,10.2,10.2,0,0,0,2-3,2,2,0,0,0-1.81-3.07,10.15,10.15,0,0,1-1.35-.16,2.56,2.56,0,0,1-1.79-2.44,13,13,0,0,1,2.43-6.21,31.55,31.55,0,0,1,5.58-6.13,6.34,6.34,0,0,1,1.45-.92,28.75,28.75,0,0,1,3-1,30.33,30.33,0,0,0,5.77-1.93,7,7,0,0,1,1.31-.37,8.39,8.39,0,0,0,1.22-.31c.71-.33,1.39-.73,2.06-1.12a15.2,15.2,0,0,0,1.93-1.2,46.34,46.34,0,0,0,5.46-4.83,8.12,8.12,0,0,1,4.66-2.63,7.07,7.07,0,0,1,5.49.92,20,20,0,0,1,3.86,3.6,2.29,2.29,0,0,1,.43.8c.38,1.06.76,2.11,1.07,3.19a2.79,2.79,0,0,1,.06,1.43,12.93,12.93,0,0,1-1.09,2.79,4.93,4.93,0,0,0-.7,2.76,1.89,1.89,0,0,0,.82,1.55,8.91,8.91,0,0,0,2.56,1.37,3.75,3.75,0,0,1,1.08.48,1.38,1.38,0,0,1,.05,2.4,4.88,4.88,0,0,0-2.69,3.94,3.91,3.91,0,0,0,2.13,4,2.33,2.33,0,0,0,2.51,0c.71-.51,1.42-1,2.14-1.53a7.44,7.44,0,0,1,.85-.52,5.47,5.47,0,0,1,2.86-.35c.85.07,1.7.15,2.54.14a7.66,7.66,0,0,0,6.18-3,2.78,2.78,0,0,0,.06-3.95,6.78,6.78,0,0,1-1.32-2.85,2.9,2.9,0,0,0-2.85-2.46,3.89,3.89,0,0,1-3.42-2.37c-.18-.42-.4-.81-.58-1.24a3,3,0,0,1,1.54-3.87,17.13,17.13,0,0,1,4.23-1.05c1.52-.24,3.06-.41,4.56-.73s3.11-.8,4.66-1.23a6.48,6.48,0,0,1,4.6.4,9.2,9.2,0,0,1,3.88,3.37,21.4,21.4,0,0,0,7.37,7.07c3.23,1.83,5.66,4.49,8.16,7.1a10.14,10.14,0,0,0,4.06,2.82,9.73,9.73,0,0,0,5.48.14,15.62,15.62,0,0,0,5.43-2.5c1.18-.85,2.26-1.84,3.38-2.78a19.68,19.68,0,0,1,5.68-3.4,7.68,7.68,0,0,1,4.7-.63c.15,0,.31,0,.46,0a6.59,6.59,0,0,1,3.49,1.42c1.31,1.25,2.64,2.5,3.84,3.89a4.88,4.88,0,0,0,5.21,1.78c1.67-.47,3.06-1.32,2.87-3.52a1.13,1.13,0,0,1,0-.45,3.42,3.42,0,0,1,.39-1.18,2.55,2.55,0,0,0,.22-3,12.07,12.07,0,0,0-.62-1.11,2.8,2.8,0,0,0-1.72-1.26,14,14,0,0,0-3-.39,18.14,18.14,0,0,1-3.69-.42,12.65,12.65,0,0,1-2.74-1.23,4.77,4.77,0,0,0-2-.54,11.9,11.9,0,0,0-5.44.86,4.8,4.8,0,0,1-2.12.43.89.89,0,0,1-.82-.49c-.49-1.11-.77-1.91.08-2.86s1.56-1.7,2.39-2.5a7.36,7.36,0,0,0,2.54-3.59,2.64,2.64,0,0,1,.28-.67,4.33,4.33,0,0,0-1.61-5.22,4.5,4.5,0,0,0-3.77-.44,10.38,10.38,0,0,0-5.8,3.54c-1,1.23-1.89,2.53-2.81,3.8a3.89,3.89,0,0,0-.38.73,14.91,14.91,0,0,1-5.31,6.59,8.71,8.71,0,0,1-1.68.89,11,11,0,0,1-4.86.41,3.23,3.23,0,0,1-2.48-1.38c-.53-.78-1-1.58-1.5-2.39a9.44,9.44,0,0,0-3.11-3.29,11.2,11.2,0,0,0-4.58-1.67,3.77,3.77,0,0,1-1.87-.66,4.93,4.93,0,0,1-1.6-5,1.21,1.21,0,0,1,1.14-1c.78-.08,1.58-.12,2.36-.2a6.8,6.8,0,0,0,3.08-1c1.74-1.1,2-4.72-.29-5.68a3.56,3.56,0,0,1-.78-.46,1.26,1.26,0,0,1-.44-1.23c.09-.48.57-.51,1-.57.84-.14,1.68-.27,2.52-.36a4.27,4.27,0,0,1,4.75,3.23,6.44,6.44,0,0,1,0,3.32,10.12,10.12,0,0,0-.42,3.05c0,.49-.07,1-.06,1.46a6.37,6.37,0,0,0,.12,1.81c.42,1.26,1,2.49,1.47,3.72a2.15,2.15,0,0,0,1.67,1.26,12.19,12.19,0,0,0,3.81.16,6.39,6.39,0,0,0,3.39-1.64,3.41,3.41,0,0,0,1.21-2.55,23.22,23.22,0,0,0,.2-3,22.83,22.83,0,0,0-.44-2.69A2.07,2.07,0,0,1,368,258a4,4,0,0,1,2.48-3.15,7.64,7.64,0,0,1,3-.37l3.28.14c.52,0,1,.07,1.55.1l4.82.31a1.71,1.71,0,0,0,.45,0l2.42-.42c3.38-.55,4.14-4.27,3.19-6.2a8.62,8.62,0,0,0-5.49-4.36,9.25,9.25,0,0,0-4.95.11c-1.14.28-2.26.68-3.39,1a5.13,5.13,0,0,1-2.4.31,6.41,6.41,0,0,0-4.61,1,10.9,10.9,0,0,1-4.53,1.57c-1.1.16-1.7-.29-1.85-1.18a7.05,7.05,0,0,1-.08-1.52c0-.45.19-.89.26-1.34a2,2,0,0,0-1.3-2.34c-1.81-.84-4.48-.28-5.42,1.59a4.94,4.94,0,0,1-1.07,1.34,5,5,0,0,1-3.6,1.29,4.17,4.17,0,0,0-2.37.49,4.35,4.35,0,0,1-1.16.3c0-.92.11-1.71.79-2.15a26.15,26.15,0,0,0,3-2.67,6.61,6.61,0,0,0,2.16-3.79,4.9,4.9,0,0,0-2.38-5.35,10.13,10.13,0,0,0-5.84-1.43,4.43,4.43,0,0,0-2.23.69c-.56.37-1.09.78-1.64,1.16a5.52,5.52,0,0,0-1.93,2.49,11.73,11.73,0,0,1-.75,1.65,22.72,22.72,0,0,0-2.31,5.53,8.25,8.25,0,0,1-.56,1.63c-.43.8-1,1.53-1.46,2.31s-1.06,1.76-1.61,2.63a4,4,0,0,1-.79,1.09,13.06,13.06,0,0,1-2.17,1.34,4.23,4.23,0,0,1-3.29.21,11.14,11.14,0,0,1-3.34-1.63,3.69,3.69,0,0,0-2.29-.76,8.25,8.25,0,0,1-1.09-.12c-1-.15-2.09-.32-3.14-.44-1.57-.17-3.15-.28-4.71-.45a8.48,8.48,0,0,1-1.95-.43,5.34,5.34,0,0,0-2.05-.36,3.23,3.23,0,0,1-.82,0,7,7,0,0,0-4.84.79,41.75,41.75,0,0,0-9.75,6.52,10.49,10.49,0,0,1-5.31,2.64,10.87,10.87,0,0,1-1.89,0,1.69,1.69,0,0,1-1.12-.53,3.2,3.2,0,0,1-.93-2.9,9.39,9.39,0,0,0,0-2.25,19.21,19.21,0,0,0-.8-2.88,2.93,2.93,0,0,0-3.46-2.29,15.4,15.4,0,0,0-2.32.39,8.68,8.68,0,0,0-3.18,1.74,7.4,7.4,0,0,0-2.32,3.42,2.79,2.79,0,0,0-.1,1.26,13.68,13.68,0,0,1-1.64,8.26,49,49,0,0,1-5.89,8c-1.48,1.77-2.95,3.56-4.39,5.37a36.38,36.38,0,0,1-5.21,6,20.07,20.07,0,0,1-5,2.95,1.9,1.9,0,0,1-2.38-.54,25.23,25.23,0,0,0-1.88-1.85,3.06,3.06,0,0,0-2.08-1,9.27,9.27,0,0,0-2.22.42,2.77,2.77,0,0,0-1.16.7,19.4,19.4,0,0,0-2.26,2.62c-3,4.52-5.61,9.24-6.78,14.62-.52,2.4-1.18,4.77-.89,7.28.12,1.11.11,2.25.29,3.35a20.1,20.1,0,0,1,.36,3.62,4.46,4.46,0,0,0,.07,1.27,8.56,8.56,0,0,1-.14,3.53,4.05,4.05,0,0,1-.44,1,1.45,1.45,0,0,1-1.17-.86c-.57-1.14-1.13-2.29-1.69-3.43a4.08,4.08,0,0,0-1.93-2,3.13,3.13,0,0,0-1.3-.3,12,12,0,0,0-1.51.33A2.22,2.22,0,0,0,219.9,314a7,7,0,0,0,.3,6.42A23.19,23.19,0,0,0,224,325.2a7.69,7.69,0,0,1,2.28,3.35,15.53,15.53,0,0,1,.13,7.39,41.38,41.38,0,0,0-1.14,6.81,11.1,11.1,0,0,1-.17,1.82c-.5,2.68-1,5.36-1.73,8a3.16,3.16,0,0,1-.63,1.17c-.61.75-1.2,1.53-1.76,2.32-.34.49-.8.59-1.14.1a4.48,4.48,0,0,1-.72-1.45,15.81,15.81,0,0,1-.25-2.07c-.12-1.06-.3-2.11-.35-3.17a4.45,4.45,0,0,0-1.19-2.79,1.78,1.78,0,0,0-2-.51,3.34,3.34,0,0,0-1.9,1.48,9.26,9.26,0,0,0-1.28,4.69,9.16,9.16,0,0,0,1.18,4.71,72.9,72.9,0,0,1,3.32,6.9,13.76,13.76,0,0,0,1.34,2.15c.27.4.61.76.92,1.14a12,12,0,0,1,2.55,5.27,5.15,5.15,0,0,0,.34,1.31c.84,1.75,1.69,3.51,2.64,5.2a18.46,18.46,0,0,0,9.89,9.15,10.56,10.56,0,0,1,5.18,5.07,12.86,12.86,0,0,1,1.39,6.7c0,1.21-.13,2.42-.2,3.63,0,.3-.08.6-.11.91-.16,2-.4,4-.46,6a27.51,27.51,0,0,0,.34,3.72,4.53,4.53,0,0,0,.3,1.32,33.24,33.24,0,0,0,1.73,3.61c1.44,2.47,3,4.87,4.47,7.31.6,1,1.13,2,1.79,3a26.89,26.89,0,0,0,4.37,4.86,2.45,2.45,0,0,1,.45.46,12.19,12.19,0,0,0,3.11,2.65,20,20,0,0,1,1.77,1.42,17.41,17.41,0,0,0,3.84,2.76c.93.45,1.84,1,2.8,1.33a9.8,9.8,0,0,0,2.27.63c1.22.2,2.48.21,3.69.47a8.4,8.4,0,0,0,5.23-.59,45.47,45.47,0,0,1,5.06-1.81c1.44-.42,3-.61,4.44-.92.86-.19,1.69-.47,2.56-.63,2.35-.44,4.7-.88,7.06-1.25a24.34,24.34,0,0,1,3.9-.33,7.49,7.49,0,0,1,3.1.56,2.46,2.46,0,0,1,.33,4,8,8,0,0,1-4.3,1.64c-1.82.15-3.65.15-5.47.25-1.66.1-3.34.17-5,.43a6.56,6.56,0,0,0-3.74,1.74,7.54,7.54,0,0,0-2,2.93,8.22,8.22,0,0,0-.48,2.76,4.57,4.57,0,0,0,1.26,3c.29.31.56.64.86.94a9.71,9.71,0,0,0,3.38,2.43c1.18.46,2.37.91,3.58,1.31a11.31,11.31,0,0,0,2.48.58c1.81.13,3.64.12,5.46.22,1,.05,2,.17,3,.29,1.2.16,2.4.35,3.6.53,1,.16,2,.27,3,.5a22.78,22.78,0,0,1,6.15,2.9c1.62.91,3.19,1.91,4.86,2.7a19,19,0,0,0,8.11,1.79,20.43,20.43,0,0,0,4.67-.69,16.89,16.89,0,0,0,4-1.28,29.38,29.38,0,0,0,5.55-4,9.35,9.35,0,0,1,8.48-2.14,13.33,13.33,0,0,1,3.63,1.68,27.14,27.14,0,0,1,4.52,3,3.21,3.21,0,0,0,3.28.42c.57-.2,1.12-.45,1.68-.64A13.51,13.51,0,0,0,369.8,462a32.86,32.86,0,0,1,5-5.4,12.59,12.59,0,0,1,2.67-1.73,19.78,19.78,0,0,1,4.65-1.21c1-.2,2.1-.27,3.14-.42.75-.11,1.49-.31,2.24-.4,2.05-.24,4.11-.37,6.15-.68a13,13,0,0,0,5.86-2.31,48.57,48.57,0,0,1,4.18-2.6,5.77,5.77,0,0,1,1.85-.73,5.83,5.83,0,0,0,2.71-1.22c1.09-.87,2.16-1.77,3.27-2.63a13.83,13.83,0,0,0,3.87-5c.43-.87.9-1.72,1.4-2.55a20.37,20.37,0,0,0,2.65-5.27A2.84,2.84,0,0,0,418.09,426.53ZM247.49,323.09a1.74,1.74,0,0,0,.06.45,8.13,8.13,0,0,0,6.19,6.13,17.73,17.73,0,0,0,2,.42,6.81,6.81,0,0,0,6.2-1.88c.63-.62,1.22-1.29,1.88-1.86a6.93,6.93,0,0,0,1.94-3.15,28.18,28.18,0,0,0,.72-3.18c.38-2-.57-3.72-1.47-5.41a.72.72,0,0,0-.18-.21c-1-.83-2.07-1.68-3.12-2.49a2.79,2.79,0,0,0-1.89-.54c-1.15.05-2.31,0-3.46,0-.24,0-.48.06-.72.09a13.83,13.83,0,0,0-4.23,1.6,8.07,8.07,0,0,0-3.88,4.41,4.59,4.59,0,0,0-.26,1.6c0,.78.14,1.56.21,2.34h-.05C247.48,322,247.48,322.55,247.49,323.09ZM388.25,265.8a9.14,9.14,0,0,0-.16,1.17,3.42,3.42,0,0,0,1.11,3.13,10.6,10.6,0,0,0,1.8,1.23c.57.33,1.21.57,1.81.86a6,6,0,0,0,3.07.75,13.76,13.76,0,0,0,1.71-.2,10.41,10.41,0,0,0,5.42-3.36,5.83,5.83,0,0,0,1.32-5.52,8.91,8.91,0,0,0-1-2.12c-.51-.89-1.09-1.75-1.65-2.61a3.31,3.31,0,0,0-1.55-1.36,9.41,9.41,0,0,0-5.84-.86c-2.26.55-4.07,1.71-4.84,4A47.88,47.88,0,0,0,388.25,265.8Zm-108.7,16c-1.61-1.45-3.22-2.81-5.63-2.2a11.19,11.19,0,0,0-3.73,1.38,14.25,14.25,0,0,0-5.33,7.08,2.47,2.47,0,0,0-.08,1.42,3.59,3.59,0,0,0,1.78,2.32c.71.35,1.43.66,2.15,1,.87.4,1.79.74,2.63,1.2a3.89,3.89,0,0,0,3.32.33c.66-.22,1.35-.36,2-.63a6.51,6.51,0,0,0,1.81-1c1.83-1.61,3-3.55,2.79-6,0-.28,0-.46,0-.65A4.9,4.9,0,0,0,279.55,281.78Zm81.58,136.81a12.54,12.54,0,0,1,.18-1.62c.14-.92.32-1.84.44-2.58a5.17,5.17,0,0,0-.8-3,13.08,13.08,0,0,0-1.85-1.87,2.24,2.24,0,0,0-1.78-.55c-1,.16-2,.37-3,.57a5.93,5.93,0,0,0-4.15,3.09,15.41,15.41,0,0,0-1.2,2.84,4.56,4.56,0,0,0-.28,2,9.19,9.19,0,0,0,.72,2.62,5.5,5.5,0,0,0,5,3.66,9,9,0,0,0,3.71-.71A4.33,4.33,0,0,0,361.13,418.59ZM233,392c-.61-.32-1.27-.56-1.92-.84a3.35,3.35,0,0,0-2.9-.06,16.57,16.57,0,0,0-2.15,1.36,2.57,2.57,0,0,0-.92,1.64c-.23,1-.35,2.14-.53,3.21h.1c0,.16,0,.31,0,.46-.05,1.74,1.21,3.87,2.76,4.35,1.84.57,3.71,1.14,5.68.36a3.66,3.66,0,0,0,2.46-2.32c.19-.61.29-1.24.45-1.85a4.49,4.49,0,0,0-.51-3.84A6.49,6.49,0,0,0,233,392Zm188,6.76a6.65,6.65,0,0,0,2,.65,4.29,4.29,0,0,0,3.17-1.13c.33-.31.63-.65,1-1a5,5,0,0,0,1.66-4.25,5.76,5.76,0,0,0-.46-2.67,4,4,0,0,0-2.53-2.68,6.45,6.45,0,0,0-3.17-.57,7.11,7.11,0,0,0-2.61,1.22,2.56,2.56,0,0,0-1.07,1.42c-.27.8-.56,1.6-.79,2.42a6.23,6.23,0,0,0-.12,3.15A4.59,4.59,0,0,0,420.91,398.76Zm-69.28,68.56a2.47,2.47,0,0,0-1.49-1,8.78,8.78,0,0,0-1.53-.2,4.51,4.51,0,0,0-2.42.25,23.38,23.38,0,0,0-2.64,1.77,3.57,3.57,0,0,0-.86,1.13,6.89,6.89,0,0,0-.58,1.44,2.79,2.79,0,0,0,.43,3,25.1,25.1,0,0,1,1.94,2.4,1.54,1.54,0,0,0,1,.7l1.18.19c1-.15,2-.35,3-.43a3.77,3.77,0,0,0,3-1.77c.19-.27.41-.52.6-.8a2.73,2.73,0,0,0,.43-2.43A16.48,16.48,0,0,0,351.63,467.32ZM300.74,275.77a2.59,2.59,0,0,0-.49-2.41c-.88-.84-1.8-1.62-2.71-2.42a.7.7,0,0,0-.24-.13,6.38,6.38,0,0,0-3.81-.4,4.63,4.63,0,0,0-3.44,2.95c-.3.82-.49,1.68-.72,2.52a4.23,4.23,0,0,0,.71,2.63,12.7,12.7,0,0,0,1.68,1.68,4,4,0,0,0,5,.39c.67-.4,1.33-.85,2-1.31A4.85,4.85,0,0,0,300.74,275.77Zm-39.69,82.44c1.85.94,3.62,1,5.13-.45.13-.13.29-.23.42-.35a5.18,5.18,0,0,0,1.8-4,4,4,0,0,0-.91-2.72,3.84,3.84,0,0,1-.44-.69,4,4,0,0,0-3.2-1.81,4.43,4.43,0,0,0-3.47,1.32,6.6,6.6,0,0,0-2,3.32,4.48,4.48,0,0,0,1.93,5A6.23,6.23,0,0,0,261.05,358.21ZM363.81,433.9a2.8,2.8,0,0,1,.76-.3,3.44,3.44,0,0,0,2.2-3.89,23.38,23.38,0,0,0-1.22-3,2.23,2.23,0,0,0-1.62-1.22,7.92,7.92,0,0,0-1.61-.24,2.29,2.29,0,0,0-2.09,1.06,8.44,8.44,0,0,0-1.39,4.05,3.63,3.63,0,0,0,1,2.75A2.85,2.85,0,0,0,363.81,433.9Zm-37.24-32c-.23-.07-.48-.09-.7-.18a1.84,1.84,0,0,0-1.42.07,3.89,3.89,0,0,0-2.25,2.6,2.65,2.65,0,0,0,.85,3c1.24,1.08,3.27.8,4.45.21a.81.81,0,0,0,.28-.24,4.43,4.43,0,0,0,.94-2.51A2.55,2.55,0,0,0,326.57,401.94Zm102.07,18.33a4.19,4.19,0,0,0-2-.95c-1.36-.27-3.67,1.18-4.13,2.47a2.08,2.08,0,0,0,.07,1.84,3.68,3.68,0,0,0,3.54,2.05,1.84,1.84,0,0,0,1.49-.41,3.88,3.88,0,0,0,1.14-2.12,7.42,7.42,0,0,1,.3-1.32A1.31,1.31,0,0,0,428.64,420.27ZM394.81,252.66c.58.17,1.18.25,1.78.37a1.92,1.92,0,0,0,1.56-.3,12.52,12.52,0,0,0,1.19-.82,2,2,0,0,0,.43-2.64,4.05,4.05,0,0,0-2.58-1.52c-2.33.12-3.47,1.29-3.48,3.46A1.28,1.28,0,0,0,394.81,252.66ZM299.05,289a3.78,3.78,0,0,0,1.9-.54c1.07-.75,1.94-2.45.48-3.79-.2-.19-.37-.41-.56-.61a1.93,1.93,0,0,0-2.28-.58,3.76,3.76,0,0,0-2.11,3.58A2.34,2.34,0,0,0,299.05,289Zm-44.39,76.94c-.1.16-.18.32-.28.47a2.39,2.39,0,0,0,0,2.81,2,2,0,0,0,2.4,1c.32-.08.63-.2,1-.26a1.63,1.63,0,0,0,1.35-1.31,10.72,10.72,0,0,0,.24-1.13,2.67,2.67,0,0,0-1.91-2.84A2.55,2.55,0,0,0,254.66,365.89Z" transform="translate(-212.15 -231.18)"/><text class="cls-2" transform="translate(60.85 188.1)">K</text></svg>